PathFileType	4	(X/Y/Z)	..\data\2015032\dynamic\2015032_C5_01.trc
DataRate	CameraRate	NumFrames	NumMarkers	Units	OrigDataRate	OrigDataStartFrame	OrigNumFrames
100.000000	100.000000	4	48	mm	100.000000	123	165
Frame#	Time	L_IAS			L_IPS			R_IPS			R_IAS			L_FTC			L_FLE			L_FAX			L_TTC			L_FAL			L_FCC			L_FM1			L_FM2			L_FM5			R_FTC			R_FLE			R_FAX			R_TTC			R_FAL			R_FCC			R_FM1			R_FM2			R_FM5			CV7			TV10			SXS			SJN			L_SIA			L_SRS			L_SAA			L_SAE			L_HLE			L_HME			L_UOA			L_RSP			L_UHE			L_HM2			L_HM5			R_SIA			R_SRS			R_SAA			R_SAE			R_HLE			R_HME			R_UOA			R_RSP			R_UHE			R_HM2			R_HM5			
		X1	Y1	Z1	X2	Y2	Z2	X3	Y3	Z3	X4	Y4	Z4	X5	Y5	Z5	X6	Y6	Z6	X7	Y7	Z7	X8	Y8	Z8	X9	Y9	Z9	X10	Y10	Z10	X11	Y11	Z11	X12	Y12	Z12	X13	Y13	Z13	X14	Y14	Z14	X15	Y15	Z15	X16	Y16	Z16	X17	Y17	Z17	X18	Y18	Z18	X19	Y19	Z19	X20	Y20	Z20	X21	Y21	Z21	X22	Y22	Z22	X23	Y23	Z23	X24	Y24	Z24	X25	Y25	Z25	X26	Y26	Z26	X27	Y27	Z27	X28	Y28	Z28	X29	Y29	Z29	X30	Y30	Z30	X31	Y31	Z31	X32	Y32	Z32	X33	Y33	Z33	X34	Y34	Z34	X35	Y35	Z35	X36	Y36	Z36	X37	Y37	Z37	X38	Y38	Z38	X39	Y39	Z39	X40	Y40	Z40	X41	Y41	Z41	X42	Y42	Z42	X43	Y43	Z43	X44	Y44	Z44	X45	Y45	Z45	X46	Y46	Z46	X47	Y47	Z47	X48	Y48	Z48	

124	1.23	1409.891967773438	936.6029052734377	-352.4624633789063	1253.928588867188	929.4392700195315	-294.3179016113282	1248.635131835938	922.343933105469	-186.7196350097657	1402.514404296875	914.332702636719	-117.3518753051758	1360.297485351563	862.8374633789065	-412.4135742187501	1458.317138671875	445.2774963378907	-354.2587890625001	1459.478759765625	383.9363403320313	-353.2570190429688	1512.634399414063	384.7815246582032	-295.8173828125001	1445.3369140625	58.04104614257814	-287.4064331054688	1399.085205078125	19.19426345825196	-241.7629852294922	1595.414794921875	25.88607406616212	-225.2851104736329	1589.964477539063	30.88545989990235	-285.1697998046876	1544.960205078125	22.42156600952149	-323.4132080078126	1302.318481445313	817.0234985351565	-81.39769744873048	1284.092529296875	423.9140930175782	-114.5269470214844	1249.262084960938	386.4580688476564	-115.3706893920899	1295.259155273438	338.4799499511719	-158.946273803711	972.9756469726565	201.4407348632813	-175.6517791748047	936.9981689453127	208.4232025146485	-239.5974121093751	1021.333190917969	47.15326309204102	-224.8050384521485	1014.877990722656	55.05578613281251	-169.6337890625	968.8931884765627	78.78115081787111	-135.0390014648438	1241.439575195313	1412.26123046875	-233.5922393798829	1183.29248046875	1199.24951171875	-227.1478271484376	1379.15966796875	1162.997314453125	-242.4709625244141	1343.775512695313	1326.862915039063	-239.1799926757813	1163.512939453125	1207.97265625	-327.9337768554688	1190.54736328125	1333.707763671875	-329.2952575683594	1253.157348632813	1344.791748046875	-420.7535705566407	1297.421142578125	1344.860595703125	-434.4417419433595	1206.224365234375	1046.455444335938	-444.500946044922	1194.343505859375	1044.941040039063	-372.2563781738282	1174.899169921875	1028.28076171875	-407.3164978027345	1210.483276367188	792.0115356445315	-434.5840759277345	1153.468872070313	824.0255126953127	-475.2779846191407	1186.17919921875	709.4119873046876	-432.5611877441407	1107.960815429688	764.4846801757814	-469.5367126464845	1188.006225585938	1219.564453125	-101.4699630737305	1202.760864257813	1338.406494140625	-125.7888793945313	1280.540405273438	1351.64404296875	-42.15062713623048	1326.517456054688	1354.895141601563	-36.49270248413087	1361.454223632813	1041.012329101563	8.596806526184084	1330.564208984375	1026.815551757813	-59.7863235473633	1336.717895507813	1002.27685546875	-17.1794605255127	1550.65673828125	893.350280761719	-72.84767913818361	1517.531616210938	861.1885375976565	-14.85408020019532	1618.237182617188	834.7673339843752	-78.87336730957033	1548.2607421875	794.3655395507815	-18.77164459228516	
125	1.24	1422.440063476563	937.8602294921877	-353.0253295898438	1265.790893554688	930.9116821289065	-295.5158081054688	1259.940185546875	923.0407714843752	-188.0328063964844	1413.781372070313	915.0786743164065	-117.9975891113282	1372.642944335938	864.277038574219	-413.2097778320314	1464.153442382813	444.987518310547	-354.8280334472657	1464.40478515625	383.5930480957032	-353.7254028320313	1517.510375976563	383.9177856445313	-296.1976623535157	1445.843017578125	58.15589141845705	-287.1294860839844	1399.421997070313	19.29231452941895	-241.7516326904297	1595.734741210938	25.38087844848634	-224.7830352783204	1590.690063476563	30.87470626831055	-284.8783569335938	1545.33154296875	22.62144470214844	-323.7135314941407	1314.282470703125	816.8579711914065	-83.25643157958986	1310.368408203125	422.9825134277345	-114.3665771484375	1276.046020507813	386.3362426757814	-115.0913238525391	1321.075073242188	338.0929870605469	-159.0005340576172	995.1692504882815	209.3888549804688	-174.4117889404297	959.321228027344	216.8589935302735	-238.8390197753907	1038.58349609375	52.1995315551758	-219.7495727539063	1031.944091796875	61.01062393188478	-165.1855163574219	986.903015136719	88.12501525878908	-131.689193725586	1254.6591796875	1413.5986328125	-234.3149719238282	1196.2509765625	1200.847045898438	-228.6196594238282	1391.810424804688	1164.05078125	-242.5375061035157	1356.918212890625	1327.939575195313	-239.405990600586	1176.9599609375	1209.617431640625	-329.4749755859376	1204.284545898438	1335.288452148438	-330.4624328613282	1267.679565429688	1346.306884765625	-421.5675659179689	1312.02685546875	1346.204223632813	-434.8642578125001	1221.914672851563	1047.299438476563	-445.1784667968751	1210.342651367188	1045.737182617188	-372.6115417480469	1190.425659179688	1028.8720703125	-408.0676574707032	1228.945556640625	792.768249511719	-434.6442260742189	1171.270629882813	824.0059204101565	-475.3060607910157	1206.083251953125	709.9096069335939	-432.8580017089845	1126.716552734375	763.6021118164064	-469.4136962890626	1200.031494140625	1220.956176757813	-102.7309341430664	1215.517211914063	1339.7109375	-126.6748657226563	1292.572143554688	1352.729125976563	-42.62227630615235	1338.549438476563	1355.704223632813	-36.53798294067384	1370.031860351563	1041.412841796875	7.265835285186769	1339.458740234375	1027.648315429688	-61.29596328735353	1345.0654296875	1002.967529296875	-18.66558074951172	1557.972534179688	891.3466796875002	-72.65967559814455	1523.831787109375	859.5076293945315	-15.09950637817383	1624.556030273438	831.5893554687502	-78.62232208251955	1553.474609375	792.0924072265627	-19.25753593444825	
126	1.25	1434.7265625	939.0217895507815	-353.5656433105469	1277.281860351563	932.4390869140627	-296.7386779785157	1270.950439453125	923.8642578125002	-189.3614501953125	1424.805541992188	915.9849853515627	-118.6095962524414	1384.780517578125	865.6074829101565	-413.9712829589845	1469.444946289063	444.6939392089845	-355.3348388671876	1468.781982421875	383.2370910644532	-354.1401672363282	1521.815307617188	383.0722656250001	-296.4721984863282	1446.201171875	58.2516555786133	-286.8489685058594	1399.662719726563	19.33551788330078	-241.7225189208985	1595.954711914063	25.05740547180176	-224.2757720947266	1591.296997070313	31.00118637084962	-284.5399780273438	1545.614990234375	22.85172462463379	-323.9197998046876	1326.025634765625	816.8956298828127	-84.9925994873047	1336.732055664063	422.6855773925782	-114.3601303100586	1302.994262695313	386.7158203125001	-114.9755935668946	1347.287353515625	338.3974304199219	-159.3025970458985	1018.598571777344	216.4209747314454	-173.2838439941407	982.6229248046877	223.6962127685547	-238.0688018798829	1058.734985351563	56.97811126708986	-214.1081542968751	1051.935913085938	66.9463348388672	-160.1556243896485	1007.6943359375	97.08959960937503	-127.7830963134766	1267.792602539063	1414.983642578125	-235.0144348144532	1209.044799804688	1202.407592773438	-230.1305236816407	1404.269897460938	1165.098999023438	-242.5630645751954	1369.94091796875	1329.005126953125	-239.5783691406251	1190.292602539063	1211.414306640625	-331.1851501464844	1217.985595703125	1336.992553710938	-331.6885681152344	1282.240112304688	1347.93994140625	-422.4022216796876	1326.717651367188	1347.62939453125	-435.232147216797	1237.93896484375	1048.132202148438	-445.906707763672	1226.581298828125	1046.43505859375	-373.0138244628907	1206.229858398438	1029.398559570313	-408.9824523925782	1248.171142578125	793.5367431640627	-434.696746826172	1189.828491210938	823.8956298828127	-475.433807373047	1226.896362304688	710.3873901367189	-433.261688232422	1146.35009765625	762.5418701171876	-469.4968872070314	1211.738403320313	1222.406616210938	-104.1302261352539	1228.156127929688	1341.063720703125	-127.5994491577149	1304.323608398438	1353.7890625	-43.08319854736329	1350.287475585938	1356.470336914063	-36.52786254882813	1378.430419921875	1041.79052734375	5.735143661499024	1348.206787109375	1028.484741210938	-62.91170883178712	1353.24365234375	1003.667114257813	-20.30514717102051	1564.891235351563	889.0313720703127	-72.3082962036133	1529.640258789063	857.6575927734377	-15.18340015411377	1630.377807617188	828.0106201171877	-78.07505798339845	1558.103881835938	789.627868652344	-19.47672080993653	
127	1.26	1446.785888671875	940.0984497070315	-354.0872802734376	1288.462158203125	934.022888183594	-297.9732666015626	1281.748657226563	924.831237792969	-190.6880187988282	1435.650024414063	917.0643310546877	-119.1996154785157	1396.74365234375	866.8332519531252	-414.6912536621095	1474.249145507813	444.4129028320314	-355.8020019531251	1472.671264648438	382.8849182128907	-354.5241394042969	1525.611938476563	382.2561035156251	-296.6736450195313	1446.43359375	58.32384872436525	-286.5820312500001	1399.81298828125	19.347900390625	-241.6830139160157	1596.09716796875	24.83130455017091	-223.7818756103516	1591.8017578125	31.16990852355958	-284.1720275878907	1545.813842773438	23.04738235473633	-324.0531311035157	1337.62158203125	817.1770019531252	-86.5491180419922	1363.030883789063	423.0857238769532	-114.5339736938477	1329.92578125	387.6494750976564	-115.0272445678711	1373.765991210938	339.4197082519532	-159.808334350586	1043.132080078125	222.3089904785157	-172.1893920898438	1006.754028320313	228.7588958740235	-237.1761627197266	1081.716552734375	61.26406097412111	-208.0645294189454	1074.81982421875	72.58680725097658	-154.7172393798828	1031.210571289063	105.2911911010742	-123.4183883666992	1280.814575195313	1416.40771484375	-235.6926422119141	1221.677124023438	1203.915283203125	-231.6613922119141	1416.560546875	1166.158447265625	-242.5635986328126	1382.830200195313	1330.074829101563	-239.7010345458985	1203.518188476563	1213.342041015625	-333.0480651855469	1231.6259765625	1338.79736328125	-332.9594116210938	1296.791625976563	1349.68896484375	-423.2423400878907	1341.440063476563	1349.1533203125	-435.542938232422	1254.305053710938	1048.960815429688	-446.6915893554689	1242.99658203125	1047.052490234375	-373.5090942382813	1222.297729492188	1029.867309570313	-410.0674743652345	1268.130615234375	794.362487792969	-434.7427673339845	1209.156982421875	823.7414550781252	-475.6860961914064	1248.55322265625	710.8985595703126	-433.7351074218751	1166.85546875	761.3837890625001	-469.8245239257814	1223.157958984375	1223.89501953125	-105.6554260253907	1240.640747070313	1342.4501953125	-128.5718231201172	1315.790771484375	1354.825317382813	-43.5483741760254	1361.727172851563	1357.202392578125	-36.47750091552735	1386.6591796875	1042.152099609375	4.008055210113526	1356.832641601563	1029.345947265625	-64.63378143310548	1361.259765625	1004.382202148438	-22.11477279663086	1571.408447265625	886.4385375976565	-71.7970428466797	1534.95654296875	855.6719970703127	-15.10987377166748	1635.703002929688	824.0798950195315	-77.21500396728517	1562.154174804688	787.0183715820315	-19.4185848236084	
